# xmcd
#
# Track frame offsets: 
#        150
#        17609
#        60885
#        78987
#        99922
#        119972
#        148931
#        170196
#        182185
#        195819
#        217046
#        236260
#        252684
#
# Disc length: 3760 seconds
#
# Revision: 0
# Processed by: cddbd v1.5.2PL0 Copyright (c) Steve Scherf et al.
# Submitted via: ExactAudioCopy v1.3
#
DISCID=b70eae0d
DTITLE=Billy Strings - Turmoil and Tinfoil
DYEAR=2017
DGENRE=Bluegrass
TTITLE0=On The Line
TTITLE1=Meet Me at the Creek
TTITLE2=All of Tomorrow
TTITLE3=While I'm Waiting Here
TTITLE4=Living Like an Animal
TTITLE5=Turmoil and Tinfoil
TTITLE6=Salty Sheep
TTITLE7=Spinning
TTITLE8=Dealing Despair
TTITLE9=Pyramid Country
TTITLE10=Doin' Things Right
TTITLE11=These Memories of You
TTITLE12=107
EXTD=
EXTT0=
EXTT1=
EXTT2=
EXTT3=
EXTT4=
EXTT5=
EXTT6=
EXTT7=
EXTT8=
EXTT9=
EXTT10=
EXTT11=
EXTT12=
PLAYORDER=
